<?xml version="1.0" standalone="no"?>
<!DOCTYPE svg PUBLIC "-//W3C//DTD SVG 20010904//EN"
 "http://www.w3.org/TR/2001/REC-SVG-20010904/DTD/svg10.dtd">
<svg version="1.0" xmlns="http://www.w3.org/2000/svg"
 width="200.000000pt" height="200.000000pt" viewBox="0 0 200.000000 200.000000"
 preserveAspectRatio="xMidYMid meet">

<g transform="translate(0.000000,200.000000) scale(0.100000,-0.100000)"
fill="#000000" stroke="none">
<path d="M75 1438 c-48 -130 -66 -231 -72 -410 -9 -274 24 -454 123 -656 84
-173 199 -282 358 -339 99 -35 277 -34 403 2 l53 16 0 442 -1 442 -106 60
c-198 111 -435 277 -628 439 -49 41 -93 76 -96 76 -4 0 -19 -33 -34 -72z"/>
<path d="M1717 1184 c-197 -40 -396 -113 -619 -225 l-58 -29 0 -415 c0 -291 4
-415 11 -415 22 0 207 98 304 162 291 190 510 397 585 553 39 82 47 147 25
221 -22 78 -83 174 -110 173 -11 0 -73 -12 -138 -25z"/>
</g>
</svg>
